<svg width="30" height="30" viewBox="0 0 30 30" fill="none" xmlns="http://www.w3.org/2000/svg">
<path d="M13.6022 2.0584C14.1195 0.466231 16.372 0.466231 16.8893 2.0584L19.1871 9.13033C19.4185 9.84237 20.082 10.3245 20.8307 10.3245L28.2666 10.3245C29.9407 10.3245 30.6367 12.4667 29.2823 13.4507L23.2666 17.8214C22.6609 18.2615 22.4075 19.0415 22.6388 19.7535L24.9366 26.8255C25.4539 28.4177 23.6316 29.7416 22.2773 28.7576L16.2615 24.3869C15.6558 23.9469 14.8356 23.9469 14.23 24.3869L8.21421 28.7576C6.85983 29.7416 5.03752 28.4177 5.55485 26.8255L7.85266 19.7535C8.08402 19.0415 7.83057 18.2615 7.22487 17.8214L1.20913 13.4507C-0.145252 12.4667 0.550807 10.3245 2.22491 10.3245L9.66078 10.3245C10.4095 10.3245 11.073 9.84237 11.3044 9.13033L13.6022 2.0584Z" fill="#FFB545"/>
</svg>
