<svg width="261" height="55" viewBox="0 0 261 55" fill="none" xmlns="http://www.w3.org/2000/svg">
<path d="M66.8174 15H73.5774V43H66.8174V15ZM71.0574 20.56V15H76.5374C78.9108 15 80.8974 15.3733 82.4974 16.12C84.1241 16.84 85.3508 17.88 86.1774 19.24C87.0041 20.6 87.4174 22.24 87.4174 24.16C87.4174 26.0267 87.0041 27.6533 86.1774 29.04C85.3508 30.4 84.1241 31.4533 82.4974 32.2C80.8974 32.92 78.9108 33.28 76.5374 33.28H71.0574V27.72H76.5374C77.8974 27.72 78.9641 27.4133 79.7374 26.8C80.5108 26.1867 80.8974 25.3067 80.8974 24.16C80.8974 22.9867 80.5108 22.0933 79.7374 21.48C78.9641 20.8667 77.8974 20.56 76.5374 20.56H71.0574ZM96.318 24.6V43H90.358V24.6H96.318ZM101.638 30.84C101.318 30.52 100.971 30.2667 100.598 30.08C100.251 29.8933 99.8114 29.8 99.278 29.8C98.6914 29.8 98.1714 29.96 97.718 30.28C97.2647 30.6 96.918 31.0667 96.678 31.68C96.438 32.2933 96.318 33.04 96.318 33.92L94.878 31.8C94.878 30.3333 95.158 29.0267 95.718 27.88C96.3047 26.7333 97.0647 25.8267 97.998 25.16C98.9314 24.4933 99.9047 24.16 100.918 24.16C101.585 24.16 102.225 24.2933 102.838 24.56C103.451 24.8267 103.918 25.2 104.238 25.68L101.638 30.84ZM106.443 17.68C106.443 16.72 106.79 15.9467 107.483 15.36C108.177 14.7467 109.003 14.44 109.963 14.44C110.95 14.44 111.777 14.7467 112.443 15.36C113.137 15.9467 113.483 16.72 113.483 17.68C113.483 18.64 113.137 19.4267 112.443 20.04C111.777 20.6533 110.95 20.96 109.963 20.96C109.003 20.96 108.177 20.6533 107.483 20.04C106.79 19.4267 106.443 18.64 106.443 17.68ZM107.043 24.6H112.883V43H107.043V24.6ZM145.938 31.16V43H139.858V31.8C139.858 30.68 139.671 29.84 139.298 29.28C138.951 28.6933 138.365 28.4 137.538 28.4C137.005 28.4 136.525 28.5333 136.098 28.8C135.698 29.04 135.378 29.4133 135.138 29.92C134.925 30.4267 134.818 31.0533 134.818 31.8V43H128.738V31.8C128.738 30.68 128.551 29.84 128.178 29.28C127.831 28.6933 127.245 28.4 126.418 28.4C125.885 28.4 125.405 28.5333 124.978 28.8C124.578 29.04 124.258 29.4133 124.018 29.92C123.805 30.4267 123.698 31.0533 123.698 31.8V43H117.858V24.6H123.698V27.32C124.205 26.3333 124.898 25.56 125.778 25C126.685 24.44 127.765 24.16 129.018 24.16C130.458 24.16 131.605 24.4267 132.458 24.96C133.311 25.4667 133.925 26.2133 134.298 27.2C134.965 26.24 135.791 25.4933 136.778 24.96C137.765 24.4267 138.885 24.16 140.138 24.16C141.578 24.16 142.711 24.44 143.538 25C144.391 25.5333 145.005 26.32 145.378 27.36C145.751 28.4 145.938 29.6667 145.938 31.16ZM160.031 43.4C157.897 43.4 156.044 43.0133 154.471 42.24C152.924 41.44 151.724 40.32 150.871 38.88C150.017 37.44 149.591 35.7467 149.591 33.8C149.591 31.8267 150.004 30.12 150.831 28.68C151.657 27.24 152.844 26.1333 154.391 25.36C155.964 24.5867 157.817 24.2 159.951 24.2C162.084 24.2 163.884 24.5733 165.351 25.32C166.817 26.04 167.937 27.0933 168.711 28.48C169.484 29.8667 169.871 31.5467 169.871 33.52C169.871 33.8133 169.871 34.1067 169.871 34.4C169.871 34.6667 169.844 34.8933 169.791 35.08H152.991V31.72H164.351L162.911 33.56C163.044 33.3733 163.151 33.1467 163.231 32.88C163.337 32.5867 163.391 32.3467 163.391 32.16C163.391 31.36 163.244 30.6667 162.951 30.08C162.657 29.4933 162.244 29.04 161.711 28.72C161.177 28.4 160.551 28.24 159.831 28.24C158.924 28.24 158.164 28.44 157.551 28.84C156.937 29.24 156.471 29.8533 156.151 30.68C155.857 31.48 155.697 32.4933 155.671 33.72C155.671 34.84 155.831 35.8 156.151 36.6C156.471 37.4 156.951 38.0133 157.591 38.44C158.231 38.84 159.017 39.04 159.951 39.04C161.017 39.04 161.924 38.84 162.671 38.44C163.444 38.04 164.057 37.44 164.511 36.64L169.911 37.96C168.951 39.7733 167.644 41.1333 165.991 42.04C164.364 42.9467 162.377 43.4 160.031 43.4ZM179.96 29C179.96 30.7067 180.347 32.1867 181.12 33.44C181.894 34.6667 182.907 35.6 184.16 36.24C185.44 36.88 186.84 37.2 188.36 37.2C189.694 37.2 190.867 37.0267 191.88 36.68C192.894 36.3333 193.8 35.88 194.6 35.32C195.4 34.76 196.107 34.16 196.72 33.52V40.8C195.6 41.68 194.374 42.3733 193.04 42.88C191.707 43.3867 190.014 43.64 187.96 43.64C185.72 43.64 183.654 43.2933 181.76 42.6C179.867 41.9067 178.24 40.9067 176.88 39.6C175.52 38.2933 174.467 36.7467 173.72 34.96C172.974 33.1733 172.6 31.1867 172.6 29C172.6 26.8133 172.974 24.8267 173.72 23.04C174.467 21.2533 175.52 19.7067 176.88 18.4C178.24 17.0933 179.867 16.0933 181.76 15.4C183.654 14.7067 185.72 14.36 187.96 14.36C190.014 14.36 191.707 14.6133 193.04 15.12C194.374 15.6267 195.6 16.32 196.72 17.2V24.48C196.107 23.84 195.4 23.24 194.6 22.68C193.8 22.0933 192.894 21.64 191.88 21.32C190.867 20.9733 189.694 20.8 188.36 20.8C186.84 20.8 185.44 21.12 184.16 21.76C182.907 22.4 181.894 23.3333 181.12 24.56C180.347 25.7867 179.96 27.2667 179.96 29ZM209.247 30.32H216.247L225.007 43H217.087L209.247 30.32ZM202.247 15H209.007V43H202.247V15ZM206.487 20.72V15H212.447C214.847 15 216.847 15.3867 218.447 16.16C220.047 16.9333 221.26 18.0133 222.087 19.4C222.914 20.76 223.327 22.3467 223.327 24.16C223.327 25.9467 222.914 27.5333 222.087 28.92C221.26 30.28 220.047 31.3467 218.447 32.12C216.847 32.8933 214.847 33.28 212.447 33.28H206.487V28.04H211.967C212.874 28.04 213.647 27.9067 214.287 27.64C214.954 27.3467 215.46 26.9333 215.807 26.4C216.154 25.84 216.327 25.1733 216.327 24.4C216.327 23.6267 216.154 22.9733 215.807 22.44C215.46 21.88 214.954 21.4533 214.287 21.16C213.647 20.8667 212.874 20.72 211.967 20.72H206.487ZM235.346 28.72L233.666 43H226.546L231.066 13.6L242.986 30.68L254.946 13.6L259.466 43H252.346L250.666 28.72L242.986 40.4L235.346 28.72Z" fill="#303030"/>
<rect x="0.857422" width="55" height="55" rx="9" fill="#F4F4F4"/>
<rect x="14.8574" y="12" width="13" height="34" rx="3" fill="#263238"/>
<g style="mix-blend-mode:darken">
<rect x="19.8574" y="12" width="25" height="25" rx="12.5" fill="#4BE3EB"/>
</g>
<path d="M27.335 13C27.6607 13.3998 27.8574 13.9188 27.8574 14.4859V36C23.2117 34.3984 19.8574 29.8114 19.8574 24.4026C19.8574 19.1988 22.9623 14.7556 27.335 13Z" fill="#47CFFF"/>
</svg>
