<svg width="31" height="29" viewBox="0 0 31 29" fill="none" xmlns="http://www.w3.org/2000/svg">
<path d="M14.0641 1.52129C14.5814 -0.0708787 16.8339 -0.0708787 17.3512 1.52129L19.649 8.59322C19.8804 9.30526 20.5439 9.78735 21.2926 9.78735L28.7285 9.78735C30.4026 9.78735 31.0986 11.9296 29.7443 12.9136L23.7285 17.2843C23.1228 17.7244 22.8694 18.5044 23.1007 19.2164L25.3985 26.2884C25.9159 27.8805 24.0936 29.2045 22.7392 28.2205L16.7234 23.8498C16.1177 23.4097 15.2976 23.4097 14.6919 23.8498L8.67612 28.2205C7.32174 29.2045 5.49944 27.8805 6.01676 26.2884L8.31458 19.2164C8.54593 18.5044 8.29248 17.7244 7.68679 17.2843L1.67104 12.9136C0.316662 11.9296 1.01272 9.78735 2.68683 9.78735L10.1227 9.78735C10.8714 9.78735 11.5349 9.30526 11.7663 8.59322L14.0641 1.52129Z" fill="#FFB545"/>
</svg>
